<svg xmlns="http://www.w3.org/2000/svg" viewBox="0 0 34 38" fill="none">
  <path
    d="M14.96 9.555a1.84 1.84 0 1 1 2.362 2.826l-3.452 2.882a1.395 1.395 0 1 0 1.79 2.141l3.266-2.726a1.829 1.829 0 1 1 2.347 2.808l-3.226 2.693a1.419 1.419 0 1 0 1.82 2.178l3.6-3.005a1.84 1.84 0 1 1 2.362 2.826l-6.146 5.131a2.696 2.696 0 0 1-3.788-.331l-7.264-8.615a2.692 2.692 0 0 1 .333-3.802l5.995-5.006Z"
    fill="#0A0A0A"
  />
  <path
    clip-rule="evenodd"
    d="M15.039.521a3.895 3.895 0 0 1 3.892 0l13.093 7.555a3.89 3.89 0 0 1 1.946 3.37v15.109a3.89 3.89 0 0 1-1.946 3.369l-13.093 7.555a3.895 3.895 0 0 1-3.892 0L1.946 29.924A3.89 3.89 0 0 1 0 26.554V11.446a3.89 3.89 0 0 1 1.946-3.369L15.04.521Zm2.096 5.76c-7.111 0-12.876 5.762-12.876 12.868 0 7.107 5.765 12.869 12.876 12.869 7.11 0 12.875-5.762 12.875-12.869 0-7.106-5.764-12.868-12.875-12.868Z"
    fill="#0A0A0A"
    fill-rule="evenodd"
  />
</svg>
